<svg xmlns:dc="http://purl.org/dc/elements/1.1/" xmlns:cc="http://creativecommons.org/ns#" xmlns:rdf="http://www.w3.org/1999/02/22-rdf-syntax-ns#" xmlns:svg="http://www.w3.org/2000/svg" xmlns="http://www.w3.org/2000/svg" xmlns:sodipodi="http://sodipodi.sourceforge.net/DTD/sodipodi-0.dtd" xmlns:inkscape="http://www.inkscape.org/namespaces/inkscape" version="1.1" x="0px" y="0px" viewBox="0 0 100 125"><g transform="translate(0,-952.36218)"><path style="font-size:medium;font-style:normal;font-variant:normal;font-weight:normal;font-stretch:normal;text-indent:0;text-align:start;text-decoration:none;line-height:normal;letter-spacing:normal;word-spacing:normal;text-transform:none;direction:ltr;block-progression:tb;writing-mode:lr-tb;text-anchor:start;baseline-shift:baseline;opacity:1;color:#000000;fill:#000000;fill-opacity:1;stroke:none;stroke-width:2;marker:none;visibility:visible;display:inline;overflow:visible;enable-background:accumulate;font-family:Sans;-inkscape-font-specification:Sans" d="M 83.40625 28 L 83.125 28.53125 C 79.28709 35.64719 72.617617 41 64 41 L 35.09375 41 L 35.09375 33 L 35.09375 30.59375 L 33.375 32.28125 L 14.28125 51.28125 L 13.59375 52 L 14.28125 52.71875 L 33.375 71.71875 L 35.09375 73.40625 L 35.09375 71 L 35.09375 63 L 61.125 63 C 74.770301 63 86 51.40642 86 37.875 L 86 29 L 86 28 L 85 28 L 84 28 L 83.40625 28 z M 84 30.75 L 84 37.875 C 84 50.29692 73.633607 61 61.125 61 L 34.09375 61 L 33.09375 61 L 33.09375 62 L 33.09375 68.5625 L 16.4375 52 L 33.09375 35.4375 L 33.09375 42 L 33.09375 43 L 34.09375 43 L 64 43 C 72.881651 43 79.784201 37.69231 84 30.75 z " transform="translate(0,952.36218)"/></g>
<!--  <text x="0" y="115" fill="#000000" font-size="5px" font-weight="bold" font-family="'Helvetica Neue', Helvetica, Arial-Unicode, Arial, Sans-serif">Created by throwaway icons</text><text x="0" y="120" fill="#000000" font-size="5px" font-weight="bold" font-family="'Helvetica Neue', Helvetica, Arial-Unicode, Arial, Sans-serif">from the Noun Project</text>-->
</svg>