<svg xmlns:dc="http://purl.org/dc/elements/1.1/" xmlns:cc="http://creativecommons.org/ns#" xmlns:rdf="http://www.w3.org/1999/02/22-rdf-syntax-ns#" xmlns:svg="http://www.w3.org/2000/svg" xmlns="http://www.w3.org/2000/svg" xmlns:sodipodi="http://sodipodi.sourceforge.net/DTD/sodipodi-0.dtd" xmlns:inkscape="http://www.inkscape.org/namespaces/inkscape" version="1.1" x="0px" y="0px" viewBox="0 0 100 125">
  <g transform="translate(0,-952.36218)">
    <path style="font-size:medium;font-style:normal;font-variant:normal;font-weight:normal;font-stretch:normal;text-indent:0;text-align:start;text-decoration:none;line-height:normal;letter-spacing:normal;word-spacing:normal;text-transform:none;direction:ltr;block-progression:tb;writing-mode:lr-tb;text-anchor:start;baseline-shift:baseline;opacity:1;color:#000000;fill:#000000;fill-opacity:1;stroke:none;stroke-width:1.99999975999999990;marker:none;visibility:visible;display:inline;overflow:visible;enable-background:accumulate;font-family:Sans;-inkscape-font-specification:Sans" d="M 38 14 L 38 15 L 38 19 L 20 19 L 19 19 L 19 20 L 19 30 L 19 31 L 20 31 L 24 31 L 24 85 L 24 86 L 25 86 L 75 86 L 76 86 L 76 85 L 76 31 L 80 31 L 81 31 L 81 30 L 81 20 L 81 19 L 80 19 L 62 19 L 62 15 L 62 14 L 61 14 L 39 14 L 38 14 z M 40 16 L 60 16 L 60 20 L 60 21 L 61 21 L 79 21 L 79 29 L 21 29 L 21 21 L 39 21 L 40 21 L 40 20 L 40 16 z M 26 31 L 74 31 L 74 84 L 26 84 L 26 31 z M 41 43 L 41 73 L 43 73 L 43 43 L 41 43 z M 57 43 L 57 73 L 59 73 L 59 43 L 57 43 z " transform="translate(0,952.36218)"/>
  </g>
<!--
  <text x="0" y="115" fill="#000000" font-size="5px" font-weight="bold" font-family="'Helvetica Neue', Helvetica, Arial-Unicode, Arial, Sans-serif">Created by throwaway icons</text>
  <text x="0" y="120" fill="#000000" font-size="5px" font-weight="bold" font-family="'Helvetica Neue', Helvetica, Arial-Unicode, Arial, Sans-serif">from the Noun Project</text>
-->
</svg>