<svg xmlns:dc="http://purl.org/dc/elements/1.1/" xmlns:cc="http://creativecommons.org/ns#" xmlns:rdf="http://www.w3.org/1999/02/22-rdf-syntax-ns#" xmlns:svg="http://www.w3.org/2000/svg" xmlns="http://www.w3.org/2000/svg" xmlns:sodipodi="http://sodipodi.sourceforge.net/DTD/sodipodi-0.dtd" xmlns:inkscape="http://www.inkscape.org/namespaces/inkscape" version="1.1" x="0px" y="0px" viewBox="0 0 100 125">
  <g transform="translate(0,-952.36218)">
    <path style="font-size:medium;font-style:normal;font-variant:normal;font-weight:normal;font-stretch:normal;text-indent:0;text-align:start;text-decoration:none;line-height:normal;letter-spacing:normal;word-spacing:normal;text-transform:none;direction:ltr;block-progression:tb;writing-mode:lr-tb;text-anchor:start;baseline-shift:baseline;opacity:1;color:#000000;fill:#000000;fill-opacity:1;stroke:none;stroke-width:2;marker:none;visibility:visible;display:inline;overflow:visible;enable-background:accumulate;font-family:Sans;-inkscape-font-specification:Sans" d="M 71.03125 18 C 70.539307 17.987049 70.059629 18.026625 69.59375 18.125 C 68.661993 18.32175 67.808392 18.75411 67.125 19.4375 L 58.875 27.6875 L 24.28125 62.28125 L 24.125 62.4375 L 24.0625 62.65625 L 18.0625 80.65625 L 17.40625 82.5625 L 19.3125 81.9375 L 37.3125 75.9375 L 37.53125 75.875 L 37.71875 75.6875 L 80.5625 32.875 C 81.930039 31.5086 82.248916 29.48427 81.8125 27.46875 C 81.376084 25.45323 80.195563 23.35182 78.40625 21.5625 C 76.616927 19.77318 74.546647 18.62378 72.53125 18.1875 C 72.0274 18.07843 71.523193 18.012951 71.03125 18 z M 70.5 20 C 70.981911 19.960656 71.508277 19.998257 72.09375 20.125 C 73.65501 20.46298 75.455403 21.42416 77 22.96875 C 78.544587 24.51334 79.536919 26.31362 79.875 27.875 C 80.213081 29.43638 79.93284 30.69281 79.15625 31.46875 L 73.28125 37.34375 C 73.247349 36.85404 73.159841 36.343028 73.03125 35.84375 C 72.53925 33.93347 71.404702 31.96719 69.71875 30.28125 C 68.032809 28.5953 66.066525 27.46075 64.15625 26.96875 C 63.646187 26.837381 63.127192 26.783735 62.625 26.75 L 68.53125 20.84375 C 68.919473 20.45553 69.428275 20.18563 70.03125 20.0625 C 70.181994 20.031718 70.339363 20.013115 70.5 20 z M 62.5625 28.71875 C 62.906128 28.746242 63.280485 28.80947 63.65625 28.90625 C 65.159312 29.29337 66.82808 30.23432 68.28125 31.6875 C 69.73443 33.14067 70.706629 34.84069 71.09375 36.34375 C 71.480871 37.84681 71.294622 39.09035 70.6875 39.90625 L 38.90625 71.65625 C 38.858549 71.101513 38.755192 70.533535 38.59375 69.96875 C 38.06765 68.12815 36.952973 66.2342 35.34375 64.625 C 33.73454 63.0158 31.87185 61.93245 30.03125 61.40625 C 29.456062 61.241875 28.877485 61.143027 28.3125 61.09375 L 60.0625 29.3125 C 60.674425 28.85716 61.531616 28.636275 62.5625 28.71875 z M 27.4375 63.0625 C 28.047325 63.024825 28.734357 63.1026 29.46875 63.3125 C 30.937537 63.7323 32.556343 64.6813 33.9375 66.0625 C 35.318675 67.4437 36.236426 69.0312 36.65625 70.5 C 37.065578 71.93208 36.992249 73.19054 36.53125 74.03125 L 36.5 74.09375 L 36.46875 74.09375 L 27.3125 77.15625 C 26.773473 76.284739 26.124743 75.405996 25.34375 74.625 C 24.548864 73.830147 23.694901 73.194154 22.8125 72.65625 L 25.875 63.53125 L 25.875 63.5 C 25.893937 63.488878 25.918114 63.479484 25.9375 63.46875 C 26.34813 63.241378 26.855167 63.098477 27.4375 63.0625 z M 22.15625 74.625 C 22.769199 75.032765 23.377927 75.502938 23.9375 76.0625 C 24.494294 76.619306 24.966094 77.21415 25.375 77.8125 L 20.5625 79.40625 L 22.15625 74.625 z " transform="translate(0,952.36218)"/>
  </g>
<!--  <text x="0" y="115" fill="#000000" font-size="5px" font-weight="bold" font-family="'Helvetica Neue', Helvetica, Arial-Unicode, Arial, Sans-serif">Created by throwaway icons</text><text x="0" y="120" fill="#000000" font-size="5px" font-weight="bold" font-family="'Helvetica Neue', Helvetica, Arial-Unicode, Arial, Sans-serif">from the Noun Project</text>-->
</svg>