<svg xmlns:dc="http://purl.org/dc/elements/1.1/" xmlns:cc="http://creativecommons.org/ns#" xmlns:rdf="http://www.w3.org/1999/02/22-rdf-syntax-ns#" xmlns:svg="http://www.w3.org/2000/svg" xmlns="http://www.w3.org/2000/svg" xmlns:sodipodi="http://sodipodi.sourceforge.net/DTD/sodipodi-0.dtd" xmlns:inkscape="http://www.inkscape.org/namespaces/inkscape" version="1.1" x="0px" y="0px" viewBox="0 0 100 125">
  <g transform="translate(0,-952.36218)">
    <path style="font-size:medium;font-style:normal;font-variant:normal;font-weight:normal;font-stretch:normal;text-indent:0;text-align:start;text-decoration:none;line-height:normal;letter-spacing:normal;word-spacing:normal;text-transform:none;direction:ltr;block-progression:tb;writing-mode:lr-tb;text-anchor:start;baseline-shift:baseline;opacity:1;color:#000000;fill:#000000;fill-opacity:1;stroke:none;stroke-width:2;marker:none;visibility:visible;display:inline;overflow:visible;enable-background:accumulate;font-family:Sans;-inkscape-font-specification:Sans" d="M 18 18 L 18 19 L 18 69 L 18 69.40625 L 18.28125 69.6875 L 30.28125 81.6875 L 30.59375 82 L 31 82 L 82 82 L 82 80 L 73 80 L 73 64 L 73 63 L 72 63 L 34 63 L 33 63 L 33 64 L 33 80 L 31.4375 80 L 20 68.5625 L 20 20 L 33 20 L 33 47 L 33 48 L 34 48 L 72 48 L 73 48 L 73 47 L 73 20 L 80 20 L 80 74 L 82 74 L 82 19 L 82 18 L 81 18 L 19 18 L 18 18 z M 35 20 L 71 20 L 71 46 L 35 46 L 35 20 z M 35 65 L 71 65 L 71 80 L 35 80 L 35 65 z " transform="translate(0,952.36218)"/>
  </g>
<!--  <text x="0" y="115" fill="#000000" font-size="5px" font-weight="bold" font-family="'Helvetica Neue', Helvetica, Arial-Unicode, Arial, Sans-serif">Created by throwaway icons</text><text x="0" y="120" fill="#000000" font-size="5px" font-weight="bold" font-family="'Helvetica Neue', Helvetica, Arial-Unicode, Arial, Sans-serif">from the Noun Project</text>-->
</svg>